<?xml version="1.0" encoding="UTF-8"?>
<svg xmlns="http://www.w3.org/2000/svg" id="uuid-e94ed539-3684-4c01-9d60-52c66ec1a99b" data-name="Layer 1" viewBox="0 0 600 600">
  <defs>
    <style>
      .uuid-0952b2e1-e767-47c7-8542-e6e35a5571f2 {
        fill: #27a9ee;
      }

      .uuid-0952b2e1-e767-47c7-8542-e6e35a5571f2, .uuid-37cf3d06-0450-4299-b545-d20feba4d528, .uuid-60731e39-ccc7-401d-8f2d-48f76dfd9429, .uuid-d3998dbf-4ed6-4273-b25a-3dc7c5de789f {
        stroke-width: 0px;
      }

      .uuid-37cf3d06-0450-4299-b545-d20feba4d528 {
        fill: #3a3871;
      }

      .uuid-60731e39-ccc7-401d-8f2d-48f76dfd9429 {
        fill: #ce1c31;
      }

      .uuid-d3998dbf-4ed6-4273-b25a-3dc7c5de789f {
        fill: #fff;
      }
    </style>
  </defs>
  <path class="uuid-0952b2e1-e767-47c7-8542-e6e35a5571f2" d="M319.1,599.08c-2.99.19-6.01.3-9.02.4,3.02-.1,6.03-.21,9.02-.4Z"></path>
  <path class="uuid-0952b2e1-e767-47c7-8542-e6e35a5571f2" d="M528.05,224.31l-24.1,43.74-19.89,36.11,5.95,9.64,27.01,43.74,28.25,45.76,21.3,34.49c21.44-41.3,33.63-88.18,33.63-137.93s-12.92-99.62-35.64-141.85l-11.31,20.54-25.2,45.75Z"></path>
  <path class="uuid-0952b2e1-e767-47c7-8542-e6e35a5571f2" d="M314.63.36l13.7,23.22.3.5,8.09,13.72,2.06,3.48,40.07,67.94,15.09,25.58,1.37,2.33,158.03,1.84C502.5,59.21,415.06,5.07,314.63.36Z"></path>
  <path class="uuid-0952b2e1-e767-47c7-8542-e6e35a5571f2" d="M565.29,440.29c-1.17,2.21-2.39,4.38-3.61,6.56,1.23-2.17,2.44-4.35,3.61-6.56Z"></path>
  <path class="uuid-0952b2e1-e767-47c7-8542-e6e35a5571f2" d="M382.39,492.8l-24.76,43.74-25.89,45.75-9.36,16.54c101.24-7.36,188.49-64.93,237-147.98l-152.89-.64-24.1,42.58Z"></path>
  <path class="uuid-0952b2e1-e767-47c7-8542-e6e35a5571f2" d="M555.26,141.98c2.17,3.49,4.23,7.05,6.27,10.63-2.03-3.59-4.1-7.13-6.27-10.63Z"></path>
  <path class="uuid-0952b2e1-e767-47c7-8542-e6e35a5571f2" d="M124.11,141.45l71.02-1.1,1.76-.03,25.11-.39,4.54-7.39,8.66-14.11,16.44-26.79,2.59-4.22L307.76.19c-2.47-.06-4.93-.19-7.42-.19C192.39,0,97.79,57.08,44.99,142.67l76.63-1.19,2.49-.04Z"></path>
  <path class="uuid-0952b2e1-e767-47c7-8542-e6e35a5571f2" d="M265.6,536.54l-26.92-43.74-25.77-41.88H41.69l2.01-3.88,22.67-43.74,23.72-45.76,22.67-43.73,7.9-15.24-4.66-9.21-6.56-12.94-15-29.6-.58-1.15-44.71-88.23-3.56-7.02-.63-1.25-1.79-3.53C16.08,190.7.48,243.46.48,299.86c0,165.61,134.25,299.86,299.86,299.86,1.37,0,2.71-.08,4.07-.1l-10.66-17.33-28.16-45.75Z"></path>
  <path class="uuid-d3998dbf-4ed6-4273-b25a-3dc7c5de789f" d="M293.75,582.29l10.66,17.33.06.1c1.88-.03,3.73-.18,5.6-.25,3.02-.1,6.03-.21,9.02-.4,1.07-.07,2.15-.06,3.22-.14l.06-.11,9.36-16.54h-37.99Z"></path>
  <polygon class="uuid-d3998dbf-4ed6-4273-b25a-3dc7c5de789f" points="378.85 313.81 112.76 313.81 90.09 357.54 517.03 357.54 490.02 313.8 378.85 313.8 378.85 313.81"></polygon>
  <path class="uuid-d3998dbf-4ed6-4273-b25a-3dc7c5de789f" d="M393.94,134.81h-15.09v43.74h174.4l11.31-20.54.07-.13c-.97-1.8-2.1-3.5-3.11-5.27-2.04-3.58-4.09-7.14-6.27-10.63-.61-.98-1.15-2.02-1.77-3h-.15s-158.03-1.85-158.03-1.85l-1.37-2.33Z"></path>
  <polygon class="uuid-d3998dbf-4ed6-4273-b25a-3dc7c5de789f" points="378.85 268.05 503.95 268.05 528.05 224.31 378.85 224.31 378.85 268.05"></polygon>
  <path class="uuid-d3998dbf-4ed6-4273-b25a-3dc7c5de789f" d="M66.37,403.3l-22.67,43.74h517.88c.03-.06.07-.13.1-.19,1.22-2.17,2.44-4.35,3.61-6.56.43-.82.91-1.6,1.34-2.42l-.05-.08-21.3-34.49H66.37Z"></path>
  <polygon class="uuid-d3998dbf-4ed6-4273-b25a-3dc7c5de789f" points="357.64 536.54 382.39 492.8 238.68 492.8 265.6 536.54 357.64 536.54"></polygon>
  <polygon class="uuid-60731e39-ccc7-401d-8f2d-48f76dfd9429" points="393.94 134.81 378.85 109.23 378.85 134.81 393.94 134.81"></polygon>
  <polygon class="uuid-60731e39-ccc7-401d-8f2d-48f76dfd9429" points="528.05 224.31 553.25 178.55 378.85 178.55 378.85 224.31 528.05 224.31"></polygon>
  <polygon class="uuid-60731e39-ccc7-401d-8f2d-48f76dfd9429" points="378.85 313.8 490.02 313.8 484.06 304.16 503.95 268.05 378.85 268.05 378.85 313.8"></polygon>
  <polygon class="uuid-60731e39-ccc7-401d-8f2d-48f76dfd9429" points="66.37 403.3 545.28 403.3 517.03 357.54 90.09 357.54 66.37 403.3"></polygon>
  <path class="uuid-60731e39-ccc7-401d-8f2d-48f76dfd9429" d="M43.7,447.04l-2.01,3.88h171.22l25.77,41.88h143.71l24.1-42.58,152.89.64h.1c.73-1.25,1.39-2.55,2.1-3.81H43.7Z"></path>
  <polygon class="uuid-60731e39-ccc7-401d-8f2d-48f76dfd9429" points="293.75 582.29 331.74 582.29 357.64 536.54 265.6 536.54 293.75 582.29"></polygon>
  <path class="uuid-37cf3d06-0450-4299-b545-d20feba4d528" d="M44.96,149.17l.63,1.25h13.12l-9.56,7.02,44.71,88.23h2.16l-1.57,1.15,15,29.6h2.28l4.12-12.83,4.12,12.83h13.35l-10.8,7.93,4.12,12.83-10.65-7.82,4.66,9.21-7.9,15.24h266.09V109.23l-40.07-67.94-4.16,3.05,2.1-6.54-8.09-13.72-.68-.5h.39L314.63.36l-.11-.19c-2.2-.1-4.43-.11-6.64-.17l-.12.19-53.54,87.23h5.02l4.12-12.83,4.12,12.83h13.35l-10.8,7.93,4.13,12.83-10.8-7.93-10.8,7.93,4.12-12.83-5.06-3.71-16.44,26.79h10.56l-10.8,7.93,4.12,12.83-10.8-7.93-1.75,1.28-4.54,7.39-25.11.39,3.25,10.1h13.35l-10.8,7.93,4.12,12.83-10.8-7.93-10.8,7.93,4.12-12.83-10.8-7.93h13.35l3.24-10.07-71.02,1.1,2.89,8.97h13.35l-10.8,7.93,4.12,12.83-10.8-7.93-10.8,7.93,4.12-12.83-10.8-7.93h13.35l2.87-8.93-76.63,1.19h-.26c-.41.67-.81,1.33-1.22,1.99l1.45,4.51ZM112.07,234.18l4.12-12.83-10.8-7.93h13.35l4.12-12.83,4.12,12.83h13.35l-10.8,7.93,4.12,12.83-10.8-7.93-10.8,7.93ZM178.54,213.42h13.35l4.13-12.83,4.12,12.83h13.35l-10.8,7.93,4.12,12.83-10.8-7.93-10.8,7.93,4.12-12.83-10.8-7.93ZM279.95,171.18l-10.8-7.93-10.8,7.93,4.12-12.83-10.8-7.93h13.35l4.13-12.83,4.12,12.83h13.35l-10.8,7.93,4.12,12.83ZM273.27,276.43h13.35l-10.8,7.93,4.12,12.83-10.8-7.93-10.8,7.93,4.12-12.83-10.8-7.93h13.35l4.13-12.83,4.12,12.83ZM228.7,245.67l4.12-12.83,4.13,12.83h13.35l-10.8,7.93,4.12,12.83-10.8-7.93-10.8,7.93,4.12-12.83-10.8-7.93h13.35ZM317.25,266.42l-10.8-7.93-10.8,7.93,4.12-12.83-10.8-7.93h13.35l4.12-12.83,4.12,12.83h13.35l-10.8,7.93,4.12,12.83ZM279.95,234.18l-10.8-7.93-10.8,7.93,4.12-12.83-10.8-7.93h13.35l4.13-12.83,4.12,12.83h13.35l-10.8,7.93,4.12,12.83ZM236.95,182.66h13.35l-10.8,7.93,4.12,12.83-10.8-7.93-10.8,7.93,4.12-12.83-10.8-7.93h13.35l4.12-12.83,4.13,12.83ZM169.99,266.42l-10.8-7.93-10.8,7.93,4.12-12.83-10.8-7.93h13.35l4.12-12.83,4.12,12.83h13.35l-10.8,7.93,4.12,12.83ZM196.01,263.6l4.12,12.83h13.35l-10.8,7.93,4.12,12.83-10.8-7.93-10.8,7.93,4.12-12.83-10.8-7.93h13.35l4.13-12.83ZM347.89,276.43h13.35l-10.8,7.93,4.12,12.83-10.8-7.93-10.8,7.93,4.12-12.83-10.8-7.93h13.35l4.12-12.83,4.12,12.83ZM354.56,234.18l-10.8-7.93-10.8,7.93,4.12-12.83-10.8-7.93h13.35l4.12-12.83,4.12,12.83h13.35l-10.8,7.93,4.12,12.83ZM310.58,182.66h13.35l-10.8,7.93,4.12,12.83-10.8-7.93-10.8,7.93,4.12-12.83-10.8-7.93h13.35l4.12-12.83,4.12,12.83ZM354.56,171.18l-10.8-7.93-10.8,7.93,4.12-12.83-10.8-7.93h13.35l4.12-12.83,4.12,12.83h13.35l-10.8,7.93,4.12,12.83ZM306.46,43.83l4.12,12.83h13.35l-10.8,7.93,4.12,12.83-10.8-7.93-10.8,7.93,4.12-12.83-10.8-7.93h13.35l4.12-12.83ZM326.29,87.41h13.35l4.12-12.83,4.12,12.83h13.35l-10.8,7.93,4.12,12.83-10.8-7.93-10.8,7.93,4.12-12.83-10.8-7.93ZM288.98,119.66h13.35l4.12-12.83,4.12,12.83h13.35l-10.8,7.93,4.12,12.83-10.8-7.93-10.8,7.93,4.12-12.83-10.8-7.93ZM163.32,182.66h13.35l-10.8,7.93,4.12,12.83-10.8-7.93-10.8,7.93,4.12-12.83-10.8-7.93h13.35l4.12-12.83,4.12,12.83ZM89.69,182.66h13.35l-10.8,7.93,4.12,12.83-10.8-7.93-10.8,7.93,4.12-12.83-10.8-7.93h13.35l4.12-12.83,4.12,12.83Z"></path>
  <polygon class="uuid-d3998dbf-4ed6-4273-b25a-3dc7c5de789f" points="81.44 182.66 68.09 182.66 78.89 190.59 74.76 203.42 85.56 195.49 96.36 203.42 92.23 190.59 103.03 182.66 89.69 182.66 85.56 169.84 81.44 182.66"></polygon>
  <polygon class="uuid-d3998dbf-4ed6-4273-b25a-3dc7c5de789f" points="93.85 245.67 94.44 246.82 96.01 245.67 93.85 245.67"></polygon>
  <polygon class="uuid-d3998dbf-4ed6-4273-b25a-3dc7c5de789f" points="155.07 182.66 141.72 182.66 152.52 190.59 148.4 203.42 159.19 195.49 169.99 203.42 165.87 190.59 176.66 182.66 163.32 182.66 159.19 169.84 155.07 182.66"></polygon>
  <polygon class="uuid-d3998dbf-4ed6-4273-b25a-3dc7c5de789f" points="163.32 245.67 159.19 232.84 155.07 245.67 141.72 245.67 152.52 253.6 148.4 266.42 159.19 258.5 169.99 266.42 165.87 253.6 176.66 245.67 163.32 245.67"></polygon>
  <polygon class="uuid-d3998dbf-4ed6-4273-b25a-3dc7c5de789f" points="228.28 131.25 239.08 139.18 234.96 126.35 245.75 118.42 235.19 118.42 226.53 132.54 228.28 131.25"></polygon>
  <polygon class="uuid-d3998dbf-4ed6-4273-b25a-3dc7c5de789f" points="228.7 182.66 215.35 182.66 226.15 190.59 222.03 203.42 232.82 195.49 243.62 203.42 239.5 190.59 250.3 182.66 236.95 182.66 232.82 169.84 228.7 182.66"></polygon>
  <polygon class="uuid-d3998dbf-4ed6-4273-b25a-3dc7c5de789f" points="222.03 266.42 232.82 258.5 243.62 266.42 239.5 253.6 250.3 245.67 236.95 245.67 232.82 232.84 228.7 245.67 215.35 245.67 226.15 253.6 222.03 266.42"></polygon>
  <polygon class="uuid-d3998dbf-4ed6-4273-b25a-3dc7c5de789f" points="288.98 56.66 299.78 64.59 295.66 77.41 306.46 69.49 317.25 77.41 313.13 64.59 323.93 56.66 310.58 56.66 306.46 43.83 302.33 56.66 288.98 56.66"></polygon>
  <polygon class="uuid-d3998dbf-4ed6-4273-b25a-3dc7c5de789f" points="295.66 140.42 306.46 132.49 317.25 140.42 313.13 127.59 323.93 119.66 310.58 119.66 306.46 106.83 302.33 119.66 288.98 119.66 299.78 127.59 295.66 140.42"></polygon>
  <polygon class="uuid-d3998dbf-4ed6-4273-b25a-3dc7c5de789f" points="302.33 182.66 288.98 182.66 299.78 190.59 295.66 203.42 306.46 195.49 317.25 203.42 313.13 190.59 323.93 182.66 310.58 182.66 306.46 169.84 302.33 182.66"></polygon>
  <polygon class="uuid-d3998dbf-4ed6-4273-b25a-3dc7c5de789f" points="310.58 245.67 306.46 232.84 302.33 245.67 288.98 245.67 299.78 253.6 295.66 266.42 306.46 258.5 317.25 266.42 313.13 253.6 323.93 245.67 310.58 245.67"></polygon>
  <polygon class="uuid-d3998dbf-4ed6-4273-b25a-3dc7c5de789f" points="45.59 150.42 49.15 157.44 58.71 150.42 45.59 150.42"></polygon>
  <path class="uuid-d3998dbf-4ed6-4273-b25a-3dc7c5de789f" d="M43.51,144.66c-.15.25-.31.5-.46.75l.12.23,1.79,3.53-1.45-4.51Z"></path>
  <polygon class="uuid-d3998dbf-4ed6-4273-b25a-3dc7c5de789f" points="118.74 150.42 105.4 150.42 116.19 158.35 112.07 171.18 122.87 163.25 133.67 171.18 129.54 158.35 140.34 150.42 126.99 150.42 124.11 141.45 121.62 141.48 118.74 150.42"></polygon>
  <polygon class="uuid-d3998dbf-4ed6-4273-b25a-3dc7c5de789f" points="133.67 234.18 129.54 221.35 140.34 213.42 126.99 213.42 122.87 200.59 118.74 213.42 105.4 213.42 116.19 221.35 112.07 234.18 122.87 226.25 133.67 234.18"></polygon>
  <polygon class="uuid-d3998dbf-4ed6-4273-b25a-3dc7c5de789f" points="122.52 284.35 133.32 276.43 119.97 276.43 115.85 263.6 111.72 276.43 109.44 276.43 116 289.36 126.65 297.18 122.52 284.35"></polygon>
  <polygon class="uuid-d3998dbf-4ed6-4273-b25a-3dc7c5de789f" points="191.88 150.42 178.54 150.42 189.34 158.35 185.21 171.18 196.01 163.25 206.81 171.18 202.68 158.35 213.48 150.42 200.13 150.42 196.89 140.32 195.12 140.34 191.88 150.42"></polygon>
  <polygon class="uuid-d3998dbf-4ed6-4273-b25a-3dc7c5de789f" points="185.21 234.18 196.01 226.25 206.81 234.18 202.68 221.35 213.48 213.42 200.13 213.42 196.01 200.59 191.88 213.42 178.54 213.42 189.34 221.35 185.21 234.18"></polygon>
  <polygon class="uuid-d3998dbf-4ed6-4273-b25a-3dc7c5de789f" points="178.54 276.43 189.34 284.35 185.21 297.18 196.01 289.25 206.81 297.18 202.68 284.35 213.48 276.43 200.13 276.43 196.01 263.6 191.88 276.43 178.54 276.43"></polygon>
  <polygon class="uuid-d3998dbf-4ed6-4273-b25a-3dc7c5de789f" points="251.64 91.63 256.69 95.34 252.57 108.17 263.37 100.24 274.17 108.17 270.04 95.34 280.84 87.41 267.49 87.41 263.37 74.59 259.24 87.41 254.22 87.41 251.64 91.63"></polygon>
  <polygon class="uuid-d3998dbf-4ed6-4273-b25a-3dc7c5de789f" points="273.27 150.42 269.15 137.59 265.02 150.42 251.68 150.42 262.48 158.35 258.35 171.18 269.15 163.25 279.95 171.18 275.82 158.35 286.62 150.42 273.27 150.42"></polygon>
  <polygon class="uuid-d3998dbf-4ed6-4273-b25a-3dc7c5de789f" points="273.27 213.42 269.15 200.59 265.02 213.42 251.68 213.42 262.48 221.35 258.35 234.18 269.15 226.25 279.95 234.18 275.82 221.35 286.62 213.42 273.27 213.42"></polygon>
  <polygon class="uuid-d3998dbf-4ed6-4273-b25a-3dc7c5de789f" points="265.02 276.43 251.68 276.43 262.48 284.35 258.35 297.18 269.15 289.25 279.95 297.18 275.82 284.35 286.62 276.43 273.27 276.43 269.15 263.6 265.02 276.43"></polygon>
  <polygon class="uuid-d3998dbf-4ed6-4273-b25a-3dc7c5de789f" points="328.63 24.09 328.33 23.59 327.94 23.59 328.63 24.09"></polygon>
  <polygon class="uuid-d3998dbf-4ed6-4273-b25a-3dc7c5de789f" points="334.62 44.34 338.77 41.29 336.72 37.81 334.62 44.34"></polygon>
  <polygon class="uuid-d3998dbf-4ed6-4273-b25a-3dc7c5de789f" points="332.96 108.17 343.76 100.24 354.56 108.17 350.44 95.34 361.23 87.41 347.89 87.41 343.76 74.59 339.64 87.41 326.29 87.41 337.09 95.34 332.96 108.17"></polygon>
  <polygon class="uuid-d3998dbf-4ed6-4273-b25a-3dc7c5de789f" points="347.89 150.42 343.76 137.59 339.64 150.42 326.29 150.42 337.09 158.35 332.96 171.18 343.76 163.25 354.56 171.18 350.44 158.35 361.23 150.42 347.89 150.42"></polygon>
  <polygon class="uuid-d3998dbf-4ed6-4273-b25a-3dc7c5de789f" points="361.23 213.42 347.89 213.42 343.76 200.59 339.64 213.42 326.29 213.42 337.09 221.35 332.96 234.18 343.76 226.25 354.56 234.18 350.44 221.35 361.23 213.42"></polygon>
  <polygon class="uuid-d3998dbf-4ed6-4273-b25a-3dc7c5de789f" points="339.64 276.43 326.29 276.43 337.09 284.35 332.96 297.18 343.76 289.25 354.56 297.18 350.44 284.35 361.23 276.43 347.89 276.43 343.76 263.6 339.64 276.43"></polygon>
</svg>
