<svg xmlns="http://www.w3.org/2000/svg" id="uuid-36c18aae-bc19-4cc7-97b5-cf14e10e6cab" data-name="Layer 1" viewBox="0 0 1135.84 111.68"><defs><style>      .uuid-d74ba56b-b0e7-4f96-8ef1-fdfec03bf31b {        fill: #4a9cd4;      }      .uuid-d74ba56b-b0e7-4f96-8ef1-fdfec03bf31b, .uuid-34b6455d-24d5-4974-9943-8c639dfff69a, .uuid-a3f751ee-87c9-4d62-a9b4-2e9c85e89001, .uuid-35bfc113-2ef9-489f-a373-206730f87e86, .uuid-2a17bd03-f79e-4c40-b3c9-9fb4ce3a9767, .uuid-b7096d47-1ecc-4823-b2bc-1121b6ba5824 {        stroke-width: 0px;      }      .uuid-34b6455d-24d5-4974-9943-8c639dfff69a {        fill: #54a8e9;      }      .uuid-a3f751ee-87c9-4d62-a9b4-2e9c85e89001 {        fill: #3a386d;      }      .uuid-35bfc113-2ef9-489f-a373-206730f87e86 {        fill: #1b216a;      }      .uuid-2a17bd03-f79e-4c40-b3c9-9fb4ce3a9767 {        fill: #be3238;      }      .uuid-b7096d47-1ecc-4823-b2bc-1121b6ba5824 {        fill: #fff;      }    </style></defs><g><path class="uuid-34b6455d-24d5-4974-9943-8c639dfff69a" d="M836.07,107.23c-.51.03-1.03.05-1.55.07.52-.02,1.04-.04,1.55-.07Z"></path><path class="uuid-34b6455d-24d5-4974-9943-8c639dfff69a" d="M871.96,42.86l-4.14,7.51-3.42,6.2,1.02,1.66,4.64,7.51,4.85,7.86,3.66,5.92c3.68-7.09,5.78-15.14,5.78-23.69s-2.22-17.11-6.12-24.36l-1.94,3.53-4.33,7.86Z"></path><path class="uuid-34b6455d-24d5-4974-9943-8c639dfff69a" d="M835.31,4.4l2.35,3.99.05.09,1.39,2.36.35.6,6.88,11.67,2.59,4.39.24.4,27.14.32c-8.73-13.7-23.75-23-41-23.81Z"></path><path class="uuid-34b6455d-24d5-4974-9943-8c639dfff69a" d="M878.36,79.96c-.2.38-.41.75-.62,1.13.21-.37.42-.75.62-1.13Z"></path><path class="uuid-34b6455d-24d5-4974-9943-8c639dfff69a" d="M846.94,88.97l-4.25,7.51-4.45,7.86-1.61,2.84c17.39-1.26,32.37-11.15,40.7-25.41l-26.26-.11-4.14,7.31Z"></path><path class="uuid-34b6455d-24d5-4974-9943-8c639dfff69a" d="M876.63,28.72c.37.6.73,1.21,1.08,1.82-.35-.62-.7-1.23-1.08-1.82Z"></path><path class="uuid-34b6455d-24d5-4974-9943-8c639dfff69a" d="M802.58,28.63l12.2-.19h.3s4.31-.07,4.31-.07l.78-1.27,1.49-2.42,2.82-4.6.44-.72,9.2-14.98c-.42-.01-.85-.03-1.27-.03-18.54,0-34.79,9.8-43.86,24.5l13.16-.2h.43Z"></path><path class="uuid-34b6455d-24d5-4974-9943-8c639dfff69a" d="M826.88,96.49l-4.62-7.51-4.43-7.19h-29.41l.35-.67,3.89-7.51,4.07-7.86,3.89-7.51,1.36-2.62-.8-1.58-1.13-2.22-2.58-5.08-.1-.2-7.68-15.15-.61-1.21-.11-.21-.31-.61c-4.65,7.74-7.33,16.8-7.33,26.49,0,28.44,23.06,51.5,51.5,51.5.23,0,.47-.01.7-.02l-1.83-2.98-4.84-7.86Z"></path><path class="uuid-b7096d47-1ecc-4823-b2bc-1121b6ba5824" d="M831.72,104.34l1.83,2.98v.02c.33,0,.65-.03.97-.04.52-.02,1.04-.04,1.55-.07.18-.01.37-.01.55-.02v-.02s1.62-2.84,1.62-2.84h-6.52Z"></path><polygon class="uuid-b7096d47-1ecc-4823-b2bc-1121b6ba5824" points="846.33 58.23 800.63 58.23 796.74 65.74 870.07 65.74 865.43 58.23 846.33 58.23 846.33 58.23"></polygon><path class="uuid-b7096d47-1ecc-4823-b2bc-1121b6ba5824" d="M848.93,27.49h-2.59v7.51h29.95l1.94-3.53v-.02c-.15-.31-.35-.6-.52-.91-.35-.61-.7-1.23-1.08-1.82-.11-.17-.2-.35-.3-.52h-.03s-27.14-.32-27.14-.32l-.24-.4Z"></path><polygon class="uuid-b7096d47-1ecc-4823-b2bc-1121b6ba5824" points="846.33 50.37 867.82 50.37 871.96 42.86 846.33 42.86 846.33 50.37"></polygon><path class="uuid-b7096d47-1ecc-4823-b2bc-1121b6ba5824" d="M792.67,73.6l-3.89,7.51h88.94s.01-.02.02-.03c.21-.37.42-.75.62-1.13.07-.14.16-.28.23-.42h0s-3.66-5.94-3.66-5.94h-82.25Z"></path><polygon class="uuid-b7096d47-1ecc-4823-b2bc-1121b6ba5824" points="842.69 96.49 846.94 88.97 822.26 88.97 826.88 96.49 842.69 96.49"></polygon><polygon class="uuid-2a17bd03-f79e-4c40-b3c9-9fb4ce3a9767" points="848.93 27.49 846.33 23.1 846.33 27.49 848.93 27.49"></polygon><polygon class="uuid-2a17bd03-f79e-4c40-b3c9-9fb4ce3a9767" points="871.96 42.86 876.29 35 846.33 35 846.33 42.86 871.96 42.86"></polygon><polygon class="uuid-2a17bd03-f79e-4c40-b3c9-9fb4ce3a9767" points="846.33 58.23 865.43 58.23 864.4 56.58 867.82 50.37 846.33 50.37 846.33 58.23"></polygon><polygon class="uuid-2a17bd03-f79e-4c40-b3c9-9fb4ce3a9767" points="792.67 73.6 874.92 73.6 870.07 65.74 796.74 65.74 792.67 73.6"></polygon><path class="uuid-2a17bd03-f79e-4c40-b3c9-9fb4ce3a9767" d="M788.77,81.12l-.35.67h29.41l4.43,7.19h24.68l4.14-7.31,26.26.11h.02c.13-.21.24-.44.36-.65h-88.94Z"></path><polygon class="uuid-2a17bd03-f79e-4c40-b3c9-9fb4ce3a9767" points="831.72 104.34 838.24 104.34 842.69 96.49 826.88 96.49 831.72 104.34"></polygon><path class="uuid-a3f751ee-87c9-4d62-a9b4-2e9c85e89001" d="M788.99,29.96l.11.21h2.25l-1.64,1.21,7.68,15.15h.37l-.27.2,2.58,5.08h.39l.71-2.2.71,2.2h2.29l-1.85,1.36.71,2.2-1.83-1.34.8,1.58-1.36,2.62h45.7V23.1l-6.88-11.67-.71.52.36-1.12-1.39-2.36-.12-.09h.07l-2.35-3.99-.02-.03c-.38-.02-.76-.02-1.14-.03l-.02.03-9.2,14.98h.86l.71-2.2.71,2.2h2.29l-1.85,1.36.71,2.2-1.85-1.36-1.85,1.36.71-2.2-.87-.64-2.82,4.6h1.81l-1.85,1.36.71,2.2-1.85-1.36-.3.22-.78,1.27-4.31.07.56,1.73h2.29l-1.85,1.36.71,2.2-1.85-1.36-1.85,1.36.71-2.2-1.85-1.36h2.29l.56-1.73-12.2.19.5,1.54h2.29l-1.85,1.36.71,2.2-1.85-1.36-1.85,1.36.71-2.2-1.85-1.36h2.29l.49-1.53-13.16.2h-.04c-.07.11-.14.23-.21.34l.25.77ZM800.52,44.56l.71-2.2-1.85-1.36h2.29l.71-2.2.71,2.2h2.29l-1.85,1.36.71,2.2-1.85-1.36-1.85,1.36ZM811.93,40.99h2.29l.71-2.2.71,2.2h2.29l-1.85,1.36.71,2.2-1.85-1.36-1.85,1.36.71-2.2-1.85-1.36ZM829.35,33.74l-1.85-1.36-1.85,1.36.71-2.2-1.85-1.36h2.29l.71-2.2.71,2.2h2.29l-1.85,1.36.71,2.2ZM828.2,51.81h2.29l-1.85,1.36.71,2.2-1.85-1.36-1.85,1.36.71-2.2-1.85-1.36h2.29l.71-2.2.71,2.2ZM820.55,46.53l.71-2.2.71,2.2h2.29l-1.85,1.36.71,2.2-1.85-1.36-1.85,1.36.71-2.2-1.85-1.36h2.29ZM835.76,50.1l-1.85-1.36-1.85,1.36.71-2.2-1.85-1.36h2.29l.71-2.2.71,2.2h2.29l-1.85,1.36.71,2.2ZM829.35,44.56l-1.85-1.36-1.85,1.36.71-2.2-1.85-1.36h2.29l.71-2.2.71,2.2h2.29l-1.85,1.36.71,2.2ZM821.96,35.71h2.29l-1.85,1.36.71,2.2-1.85-1.36-1.85,1.36.71-2.2-1.85-1.36h2.29l.71-2.2.71,2.2ZM810.46,50.1l-1.85-1.36-1.85,1.36.71-2.2-1.85-1.36h2.29l.71-2.2.71,2.2h2.29l-1.85,1.36.71,2.2ZM814.93,49.61l.71,2.2h2.29l-1.85,1.36.71,2.2-1.85-1.36-1.85,1.36.71-2.2-1.85-1.36h2.29l.71-2.2ZM841.02,51.81h2.29l-1.85,1.36.71,2.2-1.85-1.36-1.85,1.36.71-2.2-1.85-1.36h2.29l.71-2.2.71,2.2ZM842.16,44.56l-1.85-1.36-1.85,1.36.71-2.2-1.85-1.36h2.29l.71-2.2.71,2.2h2.29l-1.85,1.36.71,2.2ZM834.61,35.71h2.29l-1.85,1.36.71,2.2-1.85-1.36-1.85,1.36.71-2.2-1.85-1.36h2.29l.71-2.2.71,2.2ZM842.16,33.74l-1.85-1.36-1.85,1.36.71-2.2-1.85-1.36h2.29l.71-2.2.71,2.2h2.29l-1.85,1.36.71,2.2ZM833.9,11.87l.71,2.2h2.29l-1.85,1.36.71,2.2-1.85-1.36-1.85,1.36.71-2.2-1.85-1.36h2.29l.71-2.2ZM837.31,19.35h2.29l.71-2.2.71,2.2h2.29l-1.85,1.36.71,2.2-1.85-1.36-1.85,1.36.71-2.2-1.85-1.36ZM830.9,24.89h2.29l.71-2.2.71,2.2h2.29l-1.85,1.36.71,2.2-1.85-1.36-1.85,1.36.71-2.2-1.85-1.36ZM809.32,35.71h2.29l-1.85,1.36.71,2.2-1.85-1.36-1.85,1.36.71-2.2-1.85-1.36h2.29l.71-2.2.71,2.2ZM796.67,35.71h2.29l-1.85,1.36.71,2.2-1.85-1.36-1.85,1.36.71-2.2-1.85-1.36h2.29l.71-2.2.71,2.2Z"></path><polygon class="uuid-b7096d47-1ecc-4823-b2bc-1121b6ba5824" points="795.26 35.71 792.96 35.71 794.82 37.07 794.11 39.27 795.96 37.91 797.82 39.27 797.11 37.07 798.96 35.71 796.67 35.71 795.96 33.51 795.26 35.71"></polygon><polygon class="uuid-b7096d47-1ecc-4823-b2bc-1121b6ba5824" points="797.39 46.53 797.49 46.73 797.76 46.53 797.39 46.53"></polygon><polygon class="uuid-b7096d47-1ecc-4823-b2bc-1121b6ba5824" points="807.9 35.71 805.61 35.71 807.46 37.07 806.76 39.27 808.61 37.91 810.46 39.27 809.76 37.07 811.61 35.71 809.32 35.71 808.61 33.51 807.9 35.71"></polygon><polygon class="uuid-b7096d47-1ecc-4823-b2bc-1121b6ba5824" points="809.32 46.53 808.61 44.33 807.9 46.53 805.61 46.53 807.46 47.89 806.76 50.1 808.61 48.73 810.46 50.1 809.76 47.89 811.61 46.53 809.32 46.53"></polygon><polygon class="uuid-b7096d47-1ecc-4823-b2bc-1121b6ba5824" points="820.47 26.88 822.33 28.24 821.62 26.04 823.48 24.68 821.66 24.68 820.17 27.1 820.47 26.88"></polygon><polygon class="uuid-b7096d47-1ecc-4823-b2bc-1121b6ba5824" points="820.55 35.71 818.25 35.71 820.11 37.07 819.4 39.27 821.26 37.91 823.11 39.27 822.4 37.07 824.26 35.71 821.96 35.71 821.26 33.51 820.55 35.71"></polygon><polygon class="uuid-b7096d47-1ecc-4823-b2bc-1121b6ba5824" points="819.4 50.1 821.26 48.73 823.11 50.1 822.4 47.89 824.26 46.53 821.96 46.53 821.26 44.33 820.55 46.53 818.25 46.53 820.11 47.89 819.4 50.1"></polygon><polygon class="uuid-b7096d47-1ecc-4823-b2bc-1121b6ba5824" points="830.9 14.07 832.76 15.43 832.05 17.63 833.9 16.27 835.76 17.63 835.05 15.43 836.9 14.07 834.61 14.07 833.9 11.87 833.19 14.07 830.9 14.07"></polygon><polygon class="uuid-b7096d47-1ecc-4823-b2bc-1121b6ba5824" points="832.05 28.45 833.9 27.09 835.76 28.45 835.05 26.25 836.9 24.89 834.61 24.89 833.9 22.69 833.19 24.89 830.9 24.89 832.76 26.25 832.05 28.45"></polygon><polygon class="uuid-b7096d47-1ecc-4823-b2bc-1121b6ba5824" points="833.19 35.71 830.9 35.71 832.76 37.07 832.05 39.27 833.9 37.91 835.76 39.27 835.05 37.07 836.9 35.71 834.61 35.71 833.9 33.51 833.19 35.71"></polygon><polygon class="uuid-b7096d47-1ecc-4823-b2bc-1121b6ba5824" points="834.61 46.53 833.9 44.33 833.19 46.53 830.9 46.53 832.76 47.89 832.05 50.1 833.9 48.73 835.76 50.1 835.05 47.89 836.9 46.53 834.61 46.53"></polygon><polygon class="uuid-b7096d47-1ecc-4823-b2bc-1121b6ba5824" points="789.1 30.17 789.71 31.38 791.35 30.17 789.1 30.17"></polygon><path class="uuid-b7096d47-1ecc-4823-b2bc-1121b6ba5824" d="M788.74,29.18s-.05.09-.08.13l.02.04.31.61-.25-.77Z"></path><polygon class="uuid-b7096d47-1ecc-4823-b2bc-1121b6ba5824" points="801.66 30.17 799.37 30.17 801.22 31.53 800.52 33.74 802.37 32.38 804.23 33.74 803.52 31.53 805.37 30.17 803.08 30.17 802.58 28.63 802.16 28.64 801.66 30.17"></polygon><polygon class="uuid-b7096d47-1ecc-4823-b2bc-1121b6ba5824" points="804.23 44.56 803.52 42.35 805.37 40.99 803.08 40.99 802.37 38.79 801.66 40.99 799.37 40.99 801.22 42.35 800.52 44.56 802.37 43.2 804.23 44.56"></polygon><polygon class="uuid-b7096d47-1ecc-4823-b2bc-1121b6ba5824" points="802.31 53.17 804.17 51.81 801.87 51.81 801.17 49.61 800.46 51.81 800.06 51.81 801.19 54.03 803.02 55.38 802.31 53.17"></polygon><polygon class="uuid-b7096d47-1ecc-4823-b2bc-1121b6ba5824" points="814.22 30.17 811.93 30.17 813.79 31.53 813.08 33.74 814.93 32.38 816.79 33.74 816.08 31.53 817.93 30.17 815.64 30.17 815.08 28.44 814.78 28.44 814.22 30.17"></polygon><polygon class="uuid-b7096d47-1ecc-4823-b2bc-1121b6ba5824" points="813.08 44.56 814.93 43.2 816.79 44.56 816.08 42.35 817.93 40.99 815.64 40.99 814.93 38.79 814.22 40.99 811.93 40.99 813.79 42.35 813.08 44.56"></polygon><polygon class="uuid-b7096d47-1ecc-4823-b2bc-1121b6ba5824" points="811.93 51.81 813.79 53.17 813.08 55.38 814.93 54.02 816.79 55.38 816.08 53.17 817.93 51.81 815.64 51.81 814.93 49.61 814.22 51.81 811.93 51.81"></polygon><polygon class="uuid-b7096d47-1ecc-4823-b2bc-1121b6ba5824" points="824.49 20.08 825.35 20.71 824.65 22.92 826.5 21.55 828.36 22.92 827.65 20.71 829.5 19.35 827.21 19.35 826.5 17.15 825.79 19.35 824.93 19.35 824.49 20.08"></polygon><polygon class="uuid-b7096d47-1ecc-4823-b2bc-1121b6ba5824" points="828.2 30.17 827.49 27.97 826.79 30.17 824.49 30.17 826.35 31.53 825.64 33.74 827.49 32.38 829.35 33.74 828.64 31.53 830.49 30.17 828.2 30.17"></polygon><polygon class="uuid-b7096d47-1ecc-4823-b2bc-1121b6ba5824" points="828.2 40.99 827.49 38.79 826.79 40.99 824.49 40.99 826.35 42.35 825.64 44.56 827.49 43.2 829.35 44.56 828.64 42.35 830.49 40.99 828.2 40.99"></polygon><polygon class="uuid-b7096d47-1ecc-4823-b2bc-1121b6ba5824" points="826.79 51.81 824.49 51.81 826.35 53.17 825.64 55.38 827.49 54.02 829.35 55.38 828.64 53.17 830.49 51.81 828.2 51.81 827.49 49.61 826.79 51.81"></polygon><polygon class="uuid-b7096d47-1ecc-4823-b2bc-1121b6ba5824" points="837.71 8.48 837.66 8.39 837.59 8.39 837.71 8.48"></polygon><polygon class="uuid-b7096d47-1ecc-4823-b2bc-1121b6ba5824" points="838.74 11.95 839.45 11.43 839.1 10.83 838.74 11.95"></polygon><polygon class="uuid-b7096d47-1ecc-4823-b2bc-1121b6ba5824" points="838.45 22.92 840.31 21.55 842.16 22.92 841.45 20.71 843.31 19.35 841.02 19.35 840.31 17.15 839.6 19.35 837.31 19.35 839.16 20.71 838.45 22.92"></polygon><polygon class="uuid-b7096d47-1ecc-4823-b2bc-1121b6ba5824" points="841.02 30.17 840.31 27.97 839.6 30.17 837.31 30.17 839.16 31.53 838.45 33.74 840.31 32.38 842.16 33.74 841.45 31.53 843.31 30.17 841.02 30.17"></polygon><polygon class="uuid-b7096d47-1ecc-4823-b2bc-1121b6ba5824" points="843.31 40.99 841.02 40.99 840.31 38.79 839.6 40.99 837.31 40.99 839.16 42.35 838.45 44.56 840.31 43.2 842.16 44.56 841.45 42.35 843.31 40.99"></polygon><polygon class="uuid-b7096d47-1ecc-4823-b2bc-1121b6ba5824" points="839.6 51.81 837.31 51.81 839.16 53.17 838.45 55.38 840.31 54.02 842.16 55.38 841.45 53.17 843.31 51.81 841.02 51.81 840.31 49.61 839.6 51.81"></polygon></g><g><path class="uuid-d74ba56b-b0e7-4f96-8ef1-fdfec03bf31b" d="M172.44,106.53h15.54l4.89-10.46c.37-.8,1.18-1.31,2.06-1.31h38.64c.88,0,1.68.51,2.06,1.31l4.89,10.46h15.55l-41.81-89.4-41.81,89.4ZM216.31,54.77l10.6,22.68c.33.7.28,1.53-.14,2.18-.42.65-1.14,1.05-1.92,1.05h-21.22c-.78,0-1.5-.4-1.92-1.05-.42-.66-.47-1.48-.14-2.18l10.62-22.68c.37-.8,1.18-1.31,2.06-1.31h0c.88,0,1.68.51,2.06,1.31Z"></path><path class="uuid-d74ba56b-b0e7-4f96-8ef1-fdfec03bf31b" d="M68.58,92.54c2.56-4,3.86-8.48,3.86-13.32s-1.24-9.35-3.79-13.21c-2.5-3.8-5.92-6.6-10.17-8.31l-29.6-11.86c-3.2-1.34-4.95-3.79-4.95-6.91,0-3.55,1.65-6.25,4.78-7.82,6.15-2.91,13.13-2.95,19.34-.03,1.4.71,2.53,1.68,3.36,2.88l13.46-4.81c-2.22-4.8-5.75-8.32-10.74-10.73-9.98-4.81-21.54-4.76-31.45,0-3.83,1.89-6.97,4.71-9.3,8.35-2.37,3.69-3.52,7.67-3.52,12.18s1.16,8.46,3.43,11.9c2.31,3.5,5.34,5.99,9.25,7.59l29.39,11.68c4.21,1.65,6.43,4.78,6.43,9.06,0,4.51-2.12,7.96-6.14,9.98-8.77,4.39-19.01,4.32-27.63,0-3.01-1.54-4.93-3.89-5.69-6.89l-13.3,4.64c2.07,6.72,6.29,11.59,12.87,14.85,12.62,6.3,27.14,6.35,39.83,0,4.26-2.1,7.71-5.21,10.27-9.24Z"></path><path class="uuid-d74ba56b-b0e7-4f96-8ef1-fdfec03bf31b" d="M90.78,29.61h31.54c1.25,0,2.27,1.02,2.27,2.27v73.19h14.08V31.88c0-1.25,1.02-2.27,2.27-2.27h31.54v-14.08h-81.71v14.08Z"></path><path class="uuid-d74ba56b-b0e7-4f96-8ef1-fdfec03bf31b" d="M353.78,69.57c0,.89-.52,1.69-1.33,2.06-.81.37-1.76.24-2.43-.35l-64.86-56.04v89.82h14.08v-54.09c0-.89.52-1.7,1.33-2.06.3-.14.62-.21.94-.21.53,0,1.06.19,1.48.55l64.85,56.05V15.53h-14.08v54.04Z"></path><path class="uuid-d74ba56b-b0e7-4f96-8ef1-fdfec03bf31b" d="M472.33,60.3c0-12.32-4.41-22.98-13.11-31.68-8.69-8.69-19.35-13.1-31.67-13.1h-25.16v89.54h25.16c12.32,0,22.98-4.41,31.67-13.1,8.7-8.69,13.11-19.35,13.11-31.66ZM449.25,81.99s0,0,0,0c-5.98,5.97-13.28,8.99-21.7,8.99h-8.81c-1.25,0-2.27-1.02-2.27-2.27V31.88c0-1.25,1.02-2.27,2.27-2.27h8.81c8.43,0,15.73,3.02,21.7,8.98,5.97,5.98,9,13.28,9,21.71s-3.03,15.72-9,21.69Z"></path><path class="uuid-35bfc113-2ef9-489f-a373-206730f87e86" d="M560.33,92.54c2.56-4.01,3.86-8.49,3.86-13.32s-1.28-9.39-3.8-13.21c-2.5-3.8-5.92-6.59-10.17-8.3l-29.6-11.86c-3.2-1.34-4.94-3.79-4.94-6.91,0-3.54,1.65-6.25,4.76-7.82,6.2-2.92,13.16-2.94,19.35-.03,1.4.71,2.52,1.68,3.35,2.88l13.46-4.81c-2.21-4.79-5.74-8.31-10.74-10.72-9.99-4.81-21.56-4.76-31.44,0-3.83,1.88-6.97,4.7-9.32,8.36-2.36,3.69-3.51,7.67-3.51,12.17s1.16,8.46,3.43,11.9c2.32,3.51,5.34,5.99,9.24,7.59l29.4,11.68c4.21,1.65,6.44,4.78,6.44,9.06,0,4.51-2.13,7.96-6.16,9.98-8.73,4.38-19.02,4.32-27.61,0-3.01-1.53-4.94-3.88-5.7-6.89l-13.28,4.64c2.07,6.72,6.29,11.59,12.87,14.85,12.59,6.29,27.13,6.35,39.81,0,4.31-2.12,7.67-5.15,10.28-9.25Z"></path><path class="uuid-35bfc113-2ef9-489f-a373-206730f87e86" d="M581.3,29.61h31.56c1.25,0,2.27,1.02,2.27,2.27v73.19h14.08V31.88c0-1.25,1.02-2.27,2.27-2.27h31.54v-14.08h-81.72v14.08Z"></path><path class="uuid-35bfc113-2ef9-489f-a373-206730f87e86" d="M744.69,66.61c4.38-2.29,7.92-5.6,10.52-9.86,0,0,0,0,0,0,2.61-4.25,3.93-8.99,3.93-14.1,0-7.55-2.6-13.82-7.95-19.18-5.34-5.35-11.62-7.94-19.17-7.94h-38.89v89.54h14.08v-33.02c0-1.25,1.02-2.27,2.27-2.27h17.56c.86,0,1.65.49,2.03,1.25l17,34.03h15.06l-17.42-35.44c-.54-1.11-.11-2.45.99-3.02ZM732.02,55.7h-22.55c-1.25,0-2.27-1.02-2.27-2.27v-21.55c0-1.25,1.02-2.27,2.27-2.27h22.55c3.62,0,6.73,1.28,9.25,3.8,2.52,2.52,3.8,5.63,3.8,9.24s-1.28,6.74-3.8,9.25c-2.52,2.52-5.63,3.8-9.25,3.8Z"></path><path class="uuid-35bfc113-2ef9-489f-a373-206730f87e86" d="M992.46,69.57c0,.89-.52,1.7-1.33,2.06-.81.37-1.76.24-2.43-.35l-64.84-56.04v89.82h14.08v-54.09c0-.89.52-1.7,1.33-2.06.3-.14.63-.21.94-.21.53,0,1.06.19,1.49.55l64.84,56.05V15.53h-14.08v54.04Z"></path><path class="uuid-35bfc113-2ef9-489f-a373-206730f87e86" d="M1088.24,60.61v14.08h20.54c.84,0,1.61.46,2,1.21.39.74.35,1.64-.12,2.33-6.38,9.44-15.35,14.23-26.68,14.23-8.8,0-16.45-3.18-22.73-9.44-6.26-6.28-9.43-13.92-9.43-22.72s3.17-16.47,9.43-22.73c6.27-6.27,13.92-9.45,22.73-9.45,8.29,0,15.57,2.8,21.65,8.32l13.33-5.75c-1.68-2.08-4.32-5.11-6.77-6.84-8.32-6.53-17.78-9.81-28.2-9.81-12.69,0-23.69,4.56-32.7,13.55-8.98,8.98-13.53,19.99-13.53,32.7s4.55,23.7,13.54,32.68c9,9,20,13.56,32.7,13.56s23.7-4.56,32.71-13.56c8.91-8.91,13.47-19.8,13.54-32.37h-41.99Z"></path></g></svg>